<svg width="188" height="256" viewBox="0 0 188 256" fill="none" xmlns="http://www.w3.org/2000/svg">
<path fill-rule="evenodd" clip-rule="evenodd" d="M146.812 80.3125L145.875 88.75L144.875 91.6875L143.688 96.3125L141.438 98.25L136.938 97.5L136 98.625L136.438 99.625L134.5 101.5L132.75 101.562L133.125 105.375L132.188 105.75L132.875 108.938L132.188 110.375L134.5 112.25L134.75 114.438L134.25 115.5L135.562 117.312L134.812 119.25L133.562 121L134.75 123.25L136.562 125.938L137.5 130.875L139.125 132.5L140.75 131.5L142.188 131.125L144.875 132.312L147.812 134.875L149.875 134.938L149.75 132.5L148.062 129L148.312 128.562L149.062 128.188L149.188 129L149.438 129.625L150.125 130.562L150.875 131.562L151.688 132.125L152.125 132.062L152.438 131.562L152.75 130.875L153.062 130.75L153.125 131.062L153.188 131.375L152.938 132.125L152.625 132.375L152.25 132.688L152.188 132.938L152.312 133.25L153.188 134.25L153.375 134.188L153.25 133.875L153.375 133.562L153.688 133.5L153.875 133.75V134.688L154 135.062H154.375L154.5 134.75L154.312 134.438L154.25 134.188L154.562 133.75L155.062 133.812L155.562 134.188L156 134.438L156.062 134.875L156.312 135.188L156.375 135.938L156.75 136.125L157.062 136.188V136.438L157.312 136.5L157.562 136.125V135.188L157.75 134.375L158 134.312L158.25 135L158.625 134.75L158.875 135L158.75 135.312L158.688 135.438L158.625 135.562L158.188 137.062L158.125 137.625L158.25 138L158.5 138.25L158.75 138.625L159.562 139.5L160.188 140.125L161.125 140.625L161.312 141.062L161.562 141.25L162 141.375L162.438 141.812L162.688 141.75L163.062 141.625L163.188 141.125L163.25 140.625L163.312 140.438L163.438 140.5L163.875 141L164.312 141.188H164.688L165.312 141.062L165.75 141L166.188 141.438L166.562 141.5L166.875 141.312V141L166.562 140.5L165.875 140L165 138.938L165.625 138.25L165.75 137.688V137L165.875 136.75L166.188 136.438L166.062 136.188L166.812 135.625L167.062 135.5L167.188 135.938L167.25 136.188H167.562L168.125 135.875L168.25 136V136.25V136.688L168.062 136.812L167.625 136.625L167.438 136.938L167.375 137.5V138L167.875 138.125L168.25 138.188L168.625 138.375L169.938 138.25L170.5 138.062L170.688 137.812L170.5 137.625H169.938L169.875 137.5L170.125 137.312L170.25 137.125L169.875 136.625L169.688 136.375L169.25 136.438L169 136.375L168.875 136.188L169 135.938L169.438 135.875L169.812 136.062L170.312 135.938L170.562 135.688L170.688 135.312L170.562 135.062L170.25 135L169.938 134.812L170.125 134.562L170.5 134.5L170.688 134.75L170.875 134.875L171.188 134.75H171.5L171.625 135.062L172 135L172.312 135.062L172.625 135L173.062 134.188V133.938L173.188 133.75L173.688 133.625L174.062 133.25L174.375 132.688L174.562 132.562L175.5 131.5L175.938 131.438L176.125 131.125L176.875 130.562L177.562 130.062L178.062 129.75L178.938 129.188L180.188 127L180.5 124.5L183.188 123L186.875 123.25L188.188 122.312L187.938 120.25L185.625 119.562L185.5 117.562H187.188L188.062 115.062L186.562 113.812L184.312 112.188L182.562 109.25L181.438 105.125L180.5 104.438L180.812 101.438L178.875 99.625L178.688 102L178 103.5L176.5 103.062L174.188 102.562L174 100H175.438L176.062 98.75L175.125 96.9375L173.188 95.375L175.125 95.1875L175.438 93.6875L173.812 93.1875L172.125 90.4375L171.188 86.375L170.375 86.8125L170.312 88.8125L171.312 92.8125L170.5 93.8125L168.25 93.1875L164.25 89.75L161.75 86.5L161.438 83.5L159.562 82.25L156.875 83.5L155.625 85.6875L153.875 86.0625L152.625 82.8125V80.3125H146.812ZM184.625 125.312L183.25 126.125L182.188 128L181 129.062L181.438 129.438L183.375 127.938L184.5 128.125L184.625 126.938L185.938 126.812V125.875L184.625 125.312ZM178.812 129.875L178.438 130.125L178.25 130.375L177.188 131L177.062 131.438L176.75 131.812L176.562 132V132.312L176.375 132.562V132.688L176.75 132.75L176.938 132.812L176.812 133.188L176.562 133.562L176.25 133.438L176.188 133.125L175.938 133.062L175.625 133.188L175.5 133.625L175.688 133.75L175.812 133.938L175.75 134.438L175.812 134.75L176.188 135L176.312 135.312V135.875V136.188L176.688 136.125L176.938 135.688L177 135.125L177.062 134.875H177.375L177.562 134.688V134.062L177.375 133.5L177.5 133.125L177.688 132.938L178 133L178.375 132.812L178.562 132.312L178.938 131.688L179.125 131.375L179.5 131.312V131.062L179.25 130.938L179.188 130.438H178.875V130.25L179.062 130L178.812 129.875ZM184.5 134.938L184.062 135.125L183.75 135.5L183.562 135.812V136.125L183.688 136.562L183.625 136.875L183.375 137.25L183.312 137.625L183.5 137.75L183.875 137.5L183.938 137.25L184.062 137L184.438 136.688L184.75 136.312L184.812 135.812L185.062 135.75L185.25 135.562V135.188L185.125 134.938H184.812H184.5ZM171.062 135.625L170.875 135.875L170.812 136.188L170.688 136.625L171 136.875L171.438 136.375L172 136.25L171.938 136.062L171.562 135.938L171.312 135.625H171.062ZM154.312 135.75L154 135.938L153.938 136.062L154.062 136.312L154.125 136.812L154.75 138.125L154.938 138.875L155.375 139.875L156 140.812L156.438 141.562H156.812L157 141.75L157.312 142.25L158 142.438L158.438 142.312L158.625 141.938L158.562 141.562L158.312 141.312L158.375 141V140.312L158.25 139.75L158 139.312L157.938 139.062L157.25 138.375L157.125 138.5L157.188 138.812L157 138.938L156.75 138.812L156.438 138.25L156.5 137.938L156.75 137.812H157L157.125 137.688L156.625 137.188L156.188 137L155.875 137.188L155.5 136.938L155 136.375L154.688 136.188L154.312 135.75ZM185.562 136.25L185.312 136.438L185.25 136.812L184.938 137L185.125 137.312L185.062 138.188L185.188 138.438H185.625L185.75 138.188L185.625 137.375L186.062 136.688L186 136.375L185.562 136.25ZM174.5 136.625L174.25 136.812L174 136.75L173.812 136.875L173.875 137.062L174 137.312L174.312 137.438L174.438 137.688L174.562 138.125V138.5L174.438 138.938L174.375 139.312L174.438 139.5L174.562 139.75L174.688 139.938V140.375L174.5 141.562V141.938L174.812 142.125H175.125L175.938 142.625L176.438 142.5L177.625 142.25L178.188 142.125L178.5 141.75L178.625 141.25L178.688 140.812L178.438 140.375L177.938 140.125L177.25 139.875L176.75 140L176.562 139.688L177.062 139.562L177.562 139.5L177.812 139.562L178.062 139.5L178.312 139.312V139L178.125 138.75H177.812L177.375 139L175.812 138L175.438 136.875L175.312 136.75L174.812 136.688L174.5 136.625ZM153.562 136.938L153.125 137.062L152.812 137.188L152.438 137.5L152.5 138L152.625 138.438L152.75 138.75L153 138.875L153.188 138.812H153.438L153.812 139.75L154.062 140L154.438 139.938L154.5 140.312L154.375 140.625L154.688 140.75L154.812 141.438L154.75 141.75V142.125L154.938 142.375L155.312 142.562L156.188 143L157.188 143.812L158.062 143.75L158.375 143.812L158.562 144L159.25 144.188L159.875 143.875L160 143.75L159.875 143.438L159.125 143.062L159.188 142.875L158.875 142.812L158.312 143.062L158 143L157.375 142.75L156.562 142.25L156.062 141.875L155.438 141.75L154.938 140L153.875 136.938H153.562ZM151.5 137.375L151 137.562L150.938 137.938L151 138.188V138.5L150.938 138.75L151 138.938L151.438 139.375L151.625 139.75L151.562 140.125L151.812 140.625L152.188 141L152.5 141.062L152.688 140.75L152.562 140.25L152.625 139.938L152.75 139.688V139.312L152.5 139.062L152.188 138.125L151.875 137.75L151.812 137.438L151.5 137.375ZM166.188 138.25L166 138.375V138.562L166.062 138.75L166.375 138.875L166.562 139.125V139.438L166.625 139.688L167 140.25L167.5 140.438H168.062L168.438 140.25L168.75 140.062L168.875 139.75L168.75 139.562L168.688 139.438L168.812 139.312L169.188 139.25L169.375 139.188L169.312 138.938L168.938 138.812L168.625 139L168.375 138.938L167.688 138.812L167.062 138.5L166.562 138.312L166.188 138.25ZM179.375 138.375L178.625 138.688L179.312 139.812L179.5 140.438V140.938L179.438 141.75L179.625 141.875L179.875 141.75L180.438 141.375L180.812 141.062L180.938 140.625V140L180.875 139.5L180.625 139L180 138.562L179.75 138.812L179.375 138.375ZM184.75 139.062L184.562 139.125L184.312 139.438L184.188 139.75L184.062 140.375L184 141L183.812 141.25L184.625 141.312L184.812 141.125L184.562 140.75L184.5 140.5L184.75 139.938V139.625L185.062 139.438L185 139.188L184.75 139.062ZM170.812 139.5L169.812 139.562L169.75 139.938L169.5 140.062L168.938 140.375L168.875 141.5L168.938 141.812V142L169.25 142.188L169.812 142.25L170.312 142L170.625 141.688L170.75 141.375L170.812 140.625L171.438 140.75L171.75 140.875L172.188 140.812L172.438 140.938L172.25 141.25L171.875 141.5L171.75 141.688L171.938 142.375L171.75 142.562L171.562 142.75L171.875 142.938L172.688 143L173.125 143.688L173.562 143.875L173.812 144.562L174.438 144.938L174.938 145L175.25 145.688L176.25 145.938L176.5 145.75L176.812 145.438L177.188 145.25V144.75L177.812 144.562L178.062 144.25L178.438 144.125L178.875 144L178.812 143.75L179.938 142.375L179.812 142.125L178.188 142.625L176.5 142.875V143.125L176.812 143.375L176.688 143.625H176.5L175.75 143.312L175.5 143L175 142.625L174.375 142.438L173.688 142.625L173.438 142.375L173.562 141.938L174 141.25L174.062 141.062L173.875 140.875L174.188 140.688V140.375L173.438 139.688L172.938 139.5L172.062 139.625L171.75 139.5L171.25 139.562L170.812 139.5ZM159.812 140.188L159.312 140.25L159.188 140.5L159 140.938L159.062 141.25L159.688 142L160 142.5L160.375 142.562L160.75 142.25L160.812 141.75L160.875 141.562L161.062 141.438L161 141.125H160.75L160.5 140.938L160.188 140.375L159.812 140.188ZM182.125 141.875L181.812 142L181.188 142.5L180.875 142.75L180.688 143.312V143.75H180.938L181.312 143.625L181.688 143.812L182 143.5L182.125 142.875L182.625 142.312L182.125 141.875ZM180.312 145.75L180.062 146.062L179.875 146.375L179.375 147.312L179.312 147.625L179.688 147.312L180.062 147.062L180.562 146.875L180.938 146.75L181.25 146.562L181.375 146.125H181.062L180.438 146.438L180.562 145.875L180.312 145.75Z" fill="black" stroke="black" stroke-width="5" stroke-linecap="square"/>
<path fill-rule="evenodd" clip-rule="evenodd" d="M140.125 134.188L139.062 134.5L138.688 136.125L136 134.938L134.75 135.5L132.812 135.688L130.5 136.438L128.375 136L126.062 136.5L121.625 136.812L121.5 138.125L122.625 139L122.375 140.125L119.438 140.812L117.438 140.5L116.125 140L114.438 141.5L112.75 143.5L116.125 143.75L117.812 145L122.312 143.5L123.312 143.625L122.438 145.125L120.5 145.938L117.938 146.188L116.312 146.875L113.688 147.812L113.5 149.5L112.375 150.625L110.75 150.438L110.812 151.812L108.562 152.125L107.312 154.188L106.812 156.25L107.438 157.25L110.062 158.312L111.312 155.625L112.5 156.25L112.938 157.438L115.25 159L117.562 160.062L118.625 162.125L120.312 164L121.75 164.375L122.375 165.312L125.188 170.812L126.387 171.349L127.094 172.906L130.322 173.712L132.832 174.132L134.438 174.312L136.125 174.5L138.125 174.688L140.75 173.75L140.688 172.75L138.688 172.188L139.75 171.625L141.125 171.812L142.625 172.812L143.625 171.125L142.438 170L140.688 168.438L142.312 167.812L143.5 169.062L144.75 169L147.188 169.562L148.188 168.375L149.75 168.688L150.062 166.625L150.75 166.75L151.188 166.875L152.438 166.688L151.75 165.938L152.125 163L153.75 164.312L154.5 163.75L153.938 162.5L155.125 161.25L155.5 159.438L156 159.562L156.438 159.75L156.688 159.5L156.875 158.625L156.812 157.188L156.625 154.938L156.562 154.375L156.188 154.125L155.875 154.375L155.75 155.188L155.688 155.812L155.312 156.688L155.062 156.875L154.875 156.25L154.812 154.375L155.25 153.625L155.188 153.375L154.875 153.125V152.75L155.062 152.562L155.688 152.062L155.562 151.875L155.75 151.562L155.938 151.625L156.188 151.562L156.312 151.375V150.875L156.188 150.188L155.75 149.438L155.688 149.062L155.938 148.812L156.125 149L156.25 149.375L156.375 149.875L156.562 150.125L156.812 151.438L156.562 152.25V152.875L156.625 153.625L157 153.688L157.688 153.438L157.75 152.875L157.562 152L157.688 151.688L158.562 151.125L158.5 151.562L158.688 152.188L158.375 152.375L158.188 152.938L158.312 153.438L158.062 153.812L157.75 154.375V154.875L158.062 155.562L158.312 156.938L158.125 157.438L158.062 157.812L158.375 158.188L158.312 159.938L158.188 160.25L158.375 160.688L158.938 161.25L159.5 162.375L160.062 163.562L160 164.312L159.688 164.812L159.25 165.375V165.875L160.75 165.375L161.312 163.125L161.688 162.75L162.062 161.562L162.562 160.938L163.125 160.562L163.375 159.5L163.125 158L163.5 156.875L163.562 156.438L163.688 155.938L163.875 156.188L164 156.625L164.188 156.562L164.312 156.375L164.25 156L164 154.812L164.062 154.562L164.375 154.625L164.438 155L164.688 155.125L164.875 154.875V154.5L165.062 154.062L165.438 153.875L166 153.812L166.312 153.688L166.438 153.25L166.625 152.938L167.25 152.75L167.375 152.5L168.5 152.062L168.875 151.75L169 151.5L168.812 151.312L169 150.938L169.312 150.75L169.812 150.688L170.062 150.875L170.125 151.062L169.875 151.312H169.625L169.375 151.5L169.25 151.812L169.438 152L169.375 152.188L169.125 152.312L168.75 152.688V152.938L168.812 153.188L169.125 153.062L169.438 152.688L170 152.375L171.188 151.938L171.562 151.562L171.5 151.25L170.375 151.375L170.75 150.688L171.438 150.375L171.75 150.188L172.125 150.25H172.312L172.875 149.625L173.125 149.688L173.188 149.875H173.438L173.75 149.688L174.062 149.5L174.562 148.312L174.375 148.188L174 148.312L173.625 148.438L172.875 148.125L172.562 147.812L172.75 147.25L173.25 146.938L173.438 146.688L173 145.875L172.625 145.812L172.25 145.688L171.812 145.188L170.562 144.312L170 144.25L169.812 144.062L169.75 143.938L169.875 143.75H170.25L171.125 143.938L171.562 144.062L171.812 143.938L171.75 143.625L171.375 143.5L170.812 143.375L170.688 143.062L170.5 142.625L170.125 142.5L169.625 142.562H168.75L168.562 142.312L168.5 141.562V141H168.312L167.875 141.25L167 141.688L166.5 141.812L166.062 141.75L165.5 141.688L165.062 141.5L164.562 141.625L164 141.812H163.5L163.312 142L162.75 142.125L162.25 142.375L161.812 142.562L161.438 142.875L160.875 143.188L160.75 143.688L160.938 143.938V145.25L160.75 145.625L160.562 145.25L160.375 144.75L159.938 144.5H159.062L158.5 144.625L158 144.438L157.5 144.875L157 144.375L156.75 143.875L156.188 143.562L155.5 143.375V143.688L155 143.75L154.75 143.562L154.312 143.75L154.188 144.188L154.312 144.438L154.5 144.625L154.562 144.938L154.75 145.938L155.062 146.812L155 147.125L154.625 147.062L154.438 146.688L154 145.688L153.688 144.75L153.438 144.375H152.875L151 143.375L150.312 142.562H150L149.438 142.125L149.188 142.062L149 141.75L148.625 141.875L148.688 142.25L148.938 142.5L148.875 143.688L149 144L149.812 145.312L149.938 145.688L149.125 145.312L148.562 145.062H147.875L147.188 145.312L146.75 144.562L146.062 142.875L147.312 141.938L147.062 140.5L146.375 140.312L147.562 138.75L146.5 136.438L143.312 135.688L142.688 136.688L143.5 139.5L141.75 139.625L140.812 136.625L141.5 135L140.125 134.188ZM175.062 150.5L175 150.562L173.812 152L172.812 152.438L172.75 152.625L172.938 152.688V152.875L172.312 153.75L172.375 153.938L172.688 153.875L172.75 154.062L172.625 154.188L172.438 154.438L172.25 154.688L172.312 155.25L172.812 155.5L173.375 155.312L173.5 155.688H173.812L174.062 155.312L174.188 153.625L174.812 153V152.375L175.375 151.875L175.562 151.438L175.062 150.5ZM167.938 154.75L167.25 155.125H166.5L166.25 155.25L166.062 155.562V155.625L166.125 156L166.062 156.312L165.562 156.812L165.5 157L165.562 157.562L165.438 157.875L165.562 157.938L165.938 157.812L166.125 157.625L166.312 157.125L166.562 157L166.75 157.188L166.812 157.562L167.062 157.75L167.5 157.625L167.75 157.375L167.438 156.812L167.375 156.438L167.625 156.25L167.875 156.375L168.062 156.188L168 155.812L168.188 155.438L168.562 155.375L168.875 155.188L169 154.938H168.688L167.938 154.75ZM172.438 156.875L172.125 157.062L171.875 157.438L171.125 157.938L170.688 157.812L169.25 158.688L169 158.875L168.312 159.438L167.75 159.938L167.812 160.312L168 160.25L168.375 160.062L168.75 159.688L168.875 159.875V160.25L169.562 160.312L169.812 160.125L170.062 159.875L170.375 159.688L170.812 159.812L171.562 159.375L171.312 159.062L170.938 158.812L171.125 158.5L172.375 157.75L172.562 157.562V157.062L172.438 156.875Z" fill="black" stroke="black" stroke-width="5" stroke-linecap="square"/>
<path fill-rule="evenodd" clip-rule="evenodd" d="M132.75 101.562L129.25 101.812L128.062 102.312L128 103.75L125.875 105.188L124.875 107L120.562 107.438L119.688 107L120.062 105.125L118.562 104.188L117.312 104L116.562 102.125L115.312 101.75L113.625 103.188L111 102.562L110.438 104.062L109.5 104.688L109.562 106.25L108.312 108.688L109.375 110.188L108.625 113.562L107.062 112.938L105.188 112.812L104.062 115.312L102.188 117.438L100.438 114.25L97.9375 111.375L95.8125 109.75L94.5 107.688L93.375 107.875L89.375 105.125L88.125 105.25L86.375 106.375L87 110.688L79.875 109.5L80.375 111.688L77.5625 112.688L78.3125 114.375L79.5625 114.938L79.1875 118.5L79.625 121.062L78.3125 121.875L79.5625 124.25L79.125 125.875L79.9375 129.625L80 132.375L84.0625 133.5L85.6875 134.75L85.0625 137.5L86.375 140.062L87.5625 139.125L91.0625 139.375L92.4375 137.688L92.5312 134.938L94.1094 134.641L94.7188 136.812L96.4531 135.672L99.2031 137.109L102.375 137.25L105.5 137.438L106.406 138.531L108.104 138.345L109.734 142.531L110.5 142.641L111.375 144.188L112.75 143.5L114.438 141.5L116.125 140L117.438 140.5L119.438 140.812L122.375 140.125L122.625 139L121.5 138.125L121.625 136.812L118.25 137.125L117.562 135.125L120.312 135.188L121.875 134.25L123.875 135.188L126.688 134.5L127.625 133.25L129.125 131.688L128.312 130.312L129.938 129.5L131.625 130.688L133 132.562L134.875 131.75L135.5 130.688L137.5 130.875L136.562 125.938L134.75 123.25L133.562 121L134.812 119.25L135.562 117.312L134.25 115.5L134.75 114.438L134.5 112.25L132.188 110.375L132.875 108.938L132.188 105.75L133.125 105.375L132.75 101.562Z" fill="black" stroke="black" stroke-width="5" stroke-linecap="square"/>
<path fill-rule="evenodd" clip-rule="evenodd" d="M35.875 4L31.375 28.6875L37.0625 36.3125L40.3125 36.1875L46.0625 46.375L45.0625 51.625L43.875 54.375L41.9375 55.8125L41.25 60.25L41.75 62.5625L51.9375 74.25L52.5 77.4375L53.75 77.5L54.625 80.375L57.4375 85.5625L58.6875 89.3125L60.3125 90.5625L63.125 90.875L66.5 97.875L69.1875 101.688L79.875 109.5L87 110.688L86.375 106.375L88.125 105.25L89.375 105.125L93.375 107.875L94.5 107.688L95.8125 109.75L97.9375 111.375L100.438 114.25L102.188 117.438L104.062 115.312L105.188 112.812L107.062 112.938L108.625 113.562L109.375 110.188L108.312 108.688L109.562 106.25L109.5 104.688L110.438 104.062L111 102.562L113.625 103.188L115.312 101.75L116.562 102.125L117.312 104L118.562 104.188L120.062 105.125L119.688 107L120.562 107.438L124.875 107L125.875 105.188L128 103.75L128.062 102.312L129.25 101.812L132.75 101.562L130.812 99.875L130.562 97.3125L129.625 96.8125L129.375 95.0625L128.062 94L125.312 93.25L122.938 88.5625L122.375 87.1875L121.375 86.875L119.375 82.9375L121.562 82.25L123.375 79.4375L122.938 77.875L124.562 76.625L125.125 74.375L121.438 70.25L119.188 64.5625L114.5 64.0625L110.562 61.8125L108.812 58.5L108.25 54.25L98.875 40.75L94.5724 30.9094L91.1288 25.5515L89.2656 23.1646L87.2031 22.0312L83.4844 27.5781L82.8125 35.0625L80.875 37.0625L79.625 35.8125L76.1875 34.8125L71.375 34.5625L69.375 33.75L63.25 32.625L62.1875 33.375L60.9375 31.625L61.1875 29.5625L59.1875 25.3125L54.875 20.0625L53.9375 15.75L51.4375 12.9375L49.4375 10.0625L46.4375 6L42.5625 6.1875L35.875 4ZM84.5 64.5L86.375 67.25H87.6875L91.3125 70.9375L93 69.875L94.25 68.75L96.125 70.0625L94.6875 71.6875L92.9375 72.375L92.5625 75.9375L91.25 72.625L87.3125 74.5625L85.9375 72.3125L83.625 69.25L85.375 69.3125L86.4375 68.75L85.3125 67.5625L83.625 67.375L83.375 65.625L84.5 64.5Z" fill="black" stroke="black" stroke-width="5" stroke-linecap="square"/>
<path fill-rule="evenodd" clip-rule="evenodd" d="M96.4375 135.625L94.75 136.812L94.125 134.562L92.5 134.938L92.4375 137.688L91.0625 139.375L87.5625 139.125L86.375 140.062L87.5625 142.125L81.9375 143.25L74.8125 157L79.2188 155.625L80.5 164.844L84.25 166.625L84.5625 168.938L85.4375 171L87.75 169.562L89.1875 166.312L90.75 165.312V167.75L91.5625 167.5L91.6875 169.125L90.6875 171.188L92.875 169.938L93.375 168.188L94.3125 166.375L95.4375 164.938L96.75 164.875L98.1875 163.125L100.375 164.438L101.562 163.875L102.312 165.188L102.812 163.062L104.812 163.125L105.875 161.5L105 159.938L107.438 157.25L106.812 156.25L107.312 154.188L108.562 152.125L110.812 151.812L110.75 150.438L108 150.125L106.75 148.312L107.688 146.875L105.812 144.438L102.625 145.562L99.25 144.188L99.1875 143L102.5 143.125L105.562 142.125L109.781 142.531L108.132 138.32L106.426 138.533L105.5 137.438L99.1875 137.125L96.4375 135.625Z" fill="black" stroke="black" stroke-width="5" stroke-linecap="square"/>
<path fill-rule="evenodd" clip-rule="evenodd" d="M36.9375 60.25L31.1875 61.5L33.3125 67.5L33.0625 69.5625L34.125 74.375L36.625 78.875L36.4375 81.125L38.375 84.9375L38.3125 90L35.5625 93.9375L36.1875 100.5L35.25 102.938L33.6875 107.188L32.0625 108.375L31.25 110.438L28.25 111.75L26.6875 113.438L24.25 113.75L22.3125 112.938L19.625 115.375L21.0625 118.312L21.125 121.125L19.6875 122.688L18.9375 124.312L16.25 124.812L15 127.125L15.875 131.75L16.375 136.625L17.125 138.625L16.9375 143.625L23.0625 145.75H27.4375L29.3125 146.562L32 148.688L34.625 149.312L36.25 146.562L37.9375 147.438L39.1875 148.625V152.5L42.25 151.438L42.375 153.312L44.5 152.938L45.125 154.812L46.375 154.875L46.9375 159.438L49.4375 160.938L50.5625 159.938L49.9375 152.812L48.75 148.062L47.375 144.5L48.6875 143.188V139.75L49.4375 140.875L50.3125 141.875L51.8125 141.688L51.1875 140.312L51.9375 139.312L54.1875 139L55.5 140.625L57 143.938L58.8125 142.188L59.5 140L61.625 139.062L62.8125 141.062L64.4375 139.625L66.125 141.062L67.5625 142L69.5625 141.938L70.3125 146.188L68.6875 149.375L67.25 152.125L67.1875 154.688L68 155L69.0625 153.188L70.8125 151.875L72.0625 152.938L71.25 155L74.8125 157L81.9375 143.25L87.5625 142.125L86.375 140.062L85.0625 137.5L85.6875 134.75L84.0625 133.5L80 132.375L79.9375 129.625L79.125 125.875L79.5625 124.25L78.3125 121.875L79.625 121.062L79.1875 118.5L79.5625 114.938L78.3125 114.375L77.5625 112.688L80.375 111.688L79.875 109.5L69.1875 101.688L66.5 97.875L63.125 90.875L60.3125 90.5625L58.6875 89.3125L57.4375 85.5625L54.625 80.375L53.75 77.5L52.5 77.4375L51.9375 74.25L41.75 62.5625L41.25 60.25L39.875 60.6875L36.9375 60.25Z" fill="black" stroke="black" stroke-width="5" stroke-linecap="square"/>
<path fill-rule="evenodd" clip-rule="evenodd" d="M146.667 80.878L145.685 88.741L144.685 91.6785L143.498 96.3035L141.248 98.241L136.748 97.491L135.81 98.616L136.248 99.616L133.338 102.309M132.56 101.553L130.623 99.866L130.373 97.3035L129.435 96.8035L129.185 95.0535L127.873 93.991L125.123 93.241L122.748 88.5535L122.185 87.1785L121.185 86.866L119.185 82.9285L121.373 82.241L123.185 79.4285L122.748 77.866L124.373 76.616L124.935 74.366L121.248 70.241L118.998 64.5535L114.31 64.0535L110.373 61.8035L108.623 58.491L108.06 54.241L98.6854 40.741L94.3829 30.9004L90.9392 25.5424L89.076 23.1556L87.0135 22.0222L83.2948 27.5691L82.6229 35.0535L80.6854 37.0535L79.4354 35.8035L75.9979 34.8035L71.1854 34.5535L69.1854 33.741L63.0604 32.616L61.9979 33.366L60.7479 31.616L60.9979 29.5535L58.9979 25.3035L54.6854 20.0535L53.7479 15.741L51.2479 12.9285L49.2479 10.0535L46.2479 5.99097L42.3729 6.17847L36.4809 4.5213" fill="black"/>
<path d="M146.667 80.878L145.685 88.741L144.685 91.6785L143.498 96.3035L141.248 98.241L136.748 97.491L135.81 98.616L136.248 99.616L133.338 102.309M132.56 101.553L130.623 99.866L130.373 97.3035L129.435 96.8035L129.185 95.0535L127.873 93.991L125.123 93.241L122.748 88.5535L122.185 87.1785L121.185 86.866L119.185 82.9285L121.373 82.241L123.185 79.4285L122.748 77.866L124.373 76.616L124.935 74.366L121.248 70.241L118.998 64.5535L114.31 64.0535L110.373 61.8035L108.623 58.491L108.06 54.241L98.6854 40.741L94.3829 30.9004L90.9392 25.5424L89.076 23.1556L87.0135 22.0222L83.2948 27.5691L82.6229 35.0535L80.6854 37.0535L79.4354 35.8035L75.9979 34.8035L71.1854 34.5535L69.1854 33.741L63.0604 32.616L61.9979 33.366L60.7479 31.616L60.9979 29.5535L58.9979 25.3035L54.6854 20.0535L53.7479 15.741L51.2479 12.9285L49.2479 10.0535L46.2479 5.99097L42.3729 6.17847L36.4809 4.5213" stroke="black" stroke-width="1.5" stroke-linecap="square"/>
<path fill-rule="evenodd" clip-rule="evenodd" d="M71.7769 155.128L74.9331 156.971L79.0641 155.468L83.2184 165.191L84.4559 166.517V168.727L85.2955 170.317M17.4559 143.685L23.1831 145.721H27.5581L29.4331 146.534L32.1206 148.659L34.7456 149.284L36.3706 146.534L38.0581 147.409L39.3081 148.596L39.2318 151.6L39.3394 151.815M126.598 172.257L126.576 171.318L125.308 170.784L122.496 165.284L121.871 164.346L120.433 163.971L118.746 162.096L117.683 160.034L115.371 158.971L113.058 157.409L112.621 156.221L111.433 155.596L110.183 158.284L107.558 157.221L105.121 159.909L105.996 161.471L104.933 163.096L102.933 163.034L102.433 165.159L101.683 163.846L100.496 164.409L98.3081 163.096L96.8706 164.846L95.5581 164.909L94.4331 166.346L93.4956 168.159L92.9956 169.909L91.6309 171.206L91.5153 171.159" fill="black"/>
<path d="M71.7769 155.128L74.9331 156.971L79.0641 155.468L83.2184 165.191L84.4559 166.517V168.727L85.2955 170.317M17.4559 143.685L23.1831 145.721H27.5581L29.4331 146.534L32.1206 148.659L34.7456 149.284L36.3706 146.534L38.0581 147.409L39.3081 148.596L39.2318 151.6L39.3394 151.815M126.598 172.257L126.576 171.318L125.308 170.784L122.496 165.284L121.871 164.346L120.433 163.971L118.746 162.096L117.683 160.034L115.371 158.971L113.058 157.409L112.621 156.221L111.433 155.596L110.183 158.284L107.558 157.221L105.121 159.909L105.996 161.471L104.933 163.096L102.933 163.034L102.433 165.159L101.683 163.846L100.496 164.409L98.3081 163.096L96.8706 164.846L95.5581 164.909L94.4331 166.346L93.4956 168.159L92.9956 169.909L91.6309 171.206L91.5153 171.159" stroke="black" stroke-width="1.5" stroke-linecap="square"/>
<path d="M36.552 201.528C35.336 197.432 33.48 194.52 30.984 192.792C28.552 191 25.48 189.912 21.768 189.528C18.184 189.144 15.016 190.072 12.264 192.312C9.64 194.424 8.072 197.272 7.56 200.856C7.112 204.312 7.688 207.384 9.288 210.072C10.888 212.76 14.376 215.032 19.752 216.888C25.256 218.68 29.832 221.208 33.48 224.472C37.256 227.736 38.888 232.248 38.376 238.008C37.864 243.832 35.688 247.896 31.848 250.2C28.072 252.568 23.688 253.56 18.696 253.176C13.768 252.92 9.64 251.128 6.312 247.8C2.984 244.472 1.096 240.184 0.648 234.936C0.52 232.632 1.192 231.544 2.664 231.672C4.008 231.736 4.776 232.632 4.968 234.36C5.416 238.392 6.824 241.72 9.192 244.344C11.432 246.904 14.504 248.376 18.408 248.76C22.312 249.144 25.864 248.44 29.064 246.648C32.2 244.92 33.832 241.816 33.96 237.336C34.024 233.048 32.648 229.624 29.832 227.064C27.016 224.568 23.176 222.584 18.312 221.112C13.512 219.768 9.64 217.336 6.696 213.816C5.224 212.088 4.2 210.168 3.624 208.056C3.048 205.88 2.888 203.512 3.144 200.952C3.72 196.024 5.8 192.056 9.384 189.048C11.176 187.576 13.064 186.552 15.048 185.976C17.096 185.336 19.208 185.08 21.384 185.208C25.736 185.592 29.576 186.808 32.904 188.856C36.232 190.776 38.696 194.232 40.296 199.224C40.808 201.144 40.648 202.328 39.816 202.776C39.112 203.224 38.024 202.808 36.552 201.528ZM87.912 190.104C82.856 208.92 78.824 223.576 75.816 234.072C72.872 244.504 71.016 250.776 70.248 252.888C68.84 254.808 67.656 254.584 66.696 252.216L63.336 240.888L49.704 190.296C49.384 187.928 49.992 186.616 51.528 186.36C53 186.104 53.8 186.968 53.928 188.952L68.712 243.384L83.688 188.472C84.136 186.68 85.032 185.976 86.376 186.36C87.592 186.872 88.104 188.12 87.912 190.104ZM136.68 185.688C138.344 185.752 139.144 186.456 139.08 187.8C138.952 189.208 138.152 190.04 136.68 190.296L100.488 190.2L100.968 216.888L132.168 216.792C133.768 216.984 134.568 217.72 134.568 219C134.568 220.28 133.768 221.016 132.168 221.208L100.872 221.4L100.584 248.088L133.416 248.28C134.888 248.664 135.624 249.4 135.624 250.488C135.624 251.704 134.824 252.504 133.224 252.888C122.28 252.824 113.928 252.792 108.168 252.792C102.408 252.792 99.24 252.76 98.664 252.696C97.32 252.696 96.616 251.896 96.552 250.296C96.616 249.272 96.68 247.256 96.744 244.248C96.808 241.24 96.872 237.304 96.936 232.44C97 222.584 96.904 208.568 96.648 190.392C96.328 187.832 96.84 186.296 98.184 185.784L136.68 185.688ZM166.632 188.472C167.848 191.992 169 195.576 170.088 199.224C171.24 202.808 172.328 206.392 173.352 209.976C174.376 213.624 175.784 218.808 177.576 225.528C179.432 232.248 181.672 240.472 184.296 250.2C184.552 252.056 184.072 253.144 182.856 253.464C181.576 253.784 180.648 253.272 180.072 251.928L174.216 231.192L154.824 231.384L149.448 250.872C149.064 252.792 148.168 253.496 146.76 252.984C145.288 252.6 144.776 251.352 145.224 249.24L162.984 187.608C163.24 186.008 163.816 185.272 164.712 185.4C165.48 185.464 166.12 186.488 166.632 188.472ZM172.872 227.064C171.784 221.176 170.536 215.576 169.128 210.264C167.784 204.888 166.344 199.768 164.808 194.904L156.744 226.968L172.872 227.064Z" fill="#121111"/>
</svg>
<svg width="188" height="256" viewBox="0 0 188 256" fill="none" xmlns="http://www.w3.org/2000/svg">
<g clip-path="url(#clip0_5_2)">
<path fill-rule="evenodd" clip-rule="evenodd" d="M146.812 80.3125L145.875 88.75L144.875 91.6875L143.688 96.3125L141.438 98.25L136.938 97.5L136 98.625L136.438 99.625L134.5 101.5L132.75 101.562L133.125 105.375L132.188 105.75L132.875 108.938L132.188 110.375L134.5 112.25L134.75 114.438L134.25 115.5L135.562 117.312L134.812 119.25L133.562 121L134.75 123.25L136.562 125.938L137.5 130.875L139.125 132.5L140.75 131.5L142.188 131.125L144.875 132.312L147.812 134.875L149.875 134.938L149.75 132.5L148.062 129L148.312 128.562L149.062 128.188L149.188 129L149.438 129.625L150.125 130.562L150.875 131.562L151.688 132.125L152.125 132.062L152.438 131.562L152.75 130.875L153.062 130.75L153.125 131.062L153.188 131.375L152.938 132.125L152.625 132.375L152.25 132.688L152.188 132.938L152.312 133.25L153.188 134.25L153.375 134.188L153.25 133.875L153.375 133.562L153.688 133.5L153.875 133.75V134.688L154 135.062H154.375L154.5 134.75L154.312 134.438L154.25 134.188L154.562 133.75L155.062 133.812L155.562 134.188L156 134.438L156.062 134.875L156.312 135.188L156.375 135.938L156.75 136.125L157.062 136.188V136.438L157.312 136.5L157.562 136.125V135.188L157.75 134.375L158 134.312L158.25 135L158.625 134.75L158.875 135L158.75 135.312L158.688 135.438L158.625 135.562L158.188 137.062L158.125 137.625L158.25 138L158.5 138.25L158.75 138.625L159.562 139.5L160.188 140.125L161.125 140.625L161.312 141.062L161.562 141.25L162 141.375L162.438 141.812L162.688 141.75L163.062 141.625L163.188 141.125L163.25 140.625L163.312 140.438L163.438 140.5L163.875 141L164.312 141.188H164.688L165.312 141.062L165.75 141L166.188 141.438L166.562 141.5L166.875 141.312V141L166.562 140.5L165.875 140L165 138.938L165.625 138.25L165.75 137.688V137L165.875 136.75L166.188 136.438L166.062 136.188L166.812 135.625L167.062 135.5L167.188 135.938L167.25 136.188H167.562L168.125 135.875L168.25 136V136.25V136.688L168.062 136.812L167.625 136.625L167.438 136.938L167.375 137.5V138L167.875 138.125L168.25 138.188L168.625 138.375L169.938 138.25L170.5 138.062L170.688 137.812L170.5 137.625H169.938L169.875 137.5L170.125 137.312L170.25 137.125L169.875 136.625L169.688 136.375L169.25 136.438L169 136.375L168.875 136.188L169 135.938L169.438 135.875L169.812 136.062L170.312 135.938L170.562 135.688L170.688 135.312L170.562 135.062L170.25 135L169.938 134.812L170.125 134.562L170.5 134.5L170.688 134.75L170.875 134.875L171.188 134.75H171.5L171.625 135.062L172 135L172.312 135.062L172.625 135L173.062 134.188V133.938L173.188 133.75L173.688 133.625L174.062 133.25L174.375 132.688L174.562 132.562L175.5 131.5L175.938 131.438L176.125 131.125L176.875 130.562L177.562 130.062L178.062 129.75L178.938 129.188L180.188 127L180.5 124.5L183.188 123L186.875 123.25L188.188 122.312L187.938 120.25L185.625 119.562L185.5 117.562H187.188L188.062 115.062L186.562 113.812L184.312 112.188L182.562 109.25L181.438 105.125L180.5 104.438L180.812 101.438L178.875 99.625L178.688 102L178 103.5L176.5 103.062L174.188 102.562L174 100H175.438L176.062 98.75L175.125 96.9375L173.188 95.375L175.125 95.1875L175.438 93.6875L173.812 93.1875L172.125 90.4375L171.188 86.375L170.375 86.8125L170.312 88.8125L171.312 92.8125L170.5 93.8125L168.25 93.1875L164.25 89.75L161.75 86.5L161.438 83.5L159.562 82.25L156.875 83.5L155.625 85.6875L153.875 86.0625L152.625 82.8125V80.3125H146.812ZM184.625 125.312L183.25 126.125L182.188 128L181 129.062L181.438 129.438L183.375 127.938L184.5 128.125L184.625 126.938L185.938 126.812V125.875L184.625 125.312ZM178.812 129.875L178.438 130.125L178.25 130.375L177.188 131L177.062 131.438L176.75 131.812L176.562 132V132.312L176.375 132.562V132.688L176.75 132.75L176.938 132.812L176.812 133.188L176.562 133.562L176.25 133.438L176.188 133.125L175.938 133.062L175.625 133.188L175.5 133.625L175.688 133.75L175.812 133.938L175.75 134.438L175.812 134.75L176.188 135L176.312 135.312V135.875V136.188L176.688 136.125L176.938 135.688L177 135.125L177.062 134.875H177.375L177.562 134.688V134.062L177.375 133.5L177.5 133.125L177.688 132.938L178 133L178.375 132.812L178.562 132.312L178.938 131.688L179.125 131.375L179.5 131.312V131.062L179.25 130.938L179.188 130.438H178.875V130.25L179.062 130L178.812 129.875ZM184.5 134.938L184.062 135.125L183.75 135.5L183.562 135.812V136.125L183.688 136.562L183.625 136.875L183.375 137.25L183.312 137.625L183.5 137.75L183.875 137.5L183.938 137.25L184.062 137L184.438 136.688L184.75 136.312L184.812 135.812L185.062 135.75L185.25 135.562V135.188L185.125 134.938H184.812H184.5ZM171.062 135.625L170.875 135.875L170.812 136.188L170.688 136.625L171 136.875L171.438 136.375L172 136.25L171.938 136.062L171.562 135.938L171.312 135.625H171.062ZM154.312 135.75L154 135.938L153.938 136.062L154.062 136.312L154.125 136.812L154.75 138.125L154.938 138.875L155.375 139.875L156 140.812L156.438 141.562H156.812L157 141.75L157.312 142.25L158 142.438L158.438 142.312L158.625 141.938L158.562 141.562L158.312 141.312L158.375 141V140.312L158.25 139.75L158 139.312L157.938 139.062L157.25 138.375L157.125 138.5L157.188 138.812L157 138.938L156.75 138.812L156.438 138.25L156.5 137.938L156.75 137.812H157L157.125 137.688L156.625 137.188L156.188 137L155.875 137.188L155.5 136.938L155 136.375L154.688 136.188L154.312 135.75ZM185.562 136.25L185.312 136.438L185.25 136.812L184.938 137L185.125 137.312L185.062 138.188L185.188 138.438H185.625L185.75 138.188L185.625 137.375L186.062 136.688L186 136.375L185.562 136.25ZM174.5 136.625L174.25 136.812L174 136.75L173.812 136.875L173.875 137.062L174 137.312L174.312 137.438L174.438 137.688L174.562 138.125V138.5L174.438 138.938L174.375 139.312L174.438 139.5L174.562 139.75L174.688 139.938V140.375L174.5 141.562V141.938L174.812 142.125H175.125L175.938 142.625L176.438 142.5L177.625 142.25L178.188 142.125L178.5 141.75L178.625 141.25L178.688 140.812L178.438 140.375L177.938 140.125L177.25 139.875L176.75 140L176.562 139.688L177.062 139.562L177.562 139.5L177.812 139.562L178.062 139.5L178.312 139.312V139L178.125 138.75H177.812L177.375 139L175.812 138L175.438 136.875L175.312 136.75L174.812 136.688L174.5 136.625ZM153.562 136.938L153.125 137.062L152.812 137.188L152.438 137.5L152.5 138L152.625 138.438L152.75 138.75L153 138.875L153.188 138.812H153.438L153.812 139.75L154.062 140L154.438 139.938L154.5 140.312L154.375 140.625L154.688 140.75L154.812 141.438L154.75 141.75V142.125L154.938 142.375L155.312 142.562L156.188 143L157.188 143.812L158.062 143.75L158.375 143.812L158.562 144L159.25 144.188L159.875 143.875L160 143.75L159.875 143.438L159.125 143.062L159.188 142.875L158.875 142.812L158.312 143.062L158 143L157.375 142.75L156.562 142.25L156.062 141.875L155.438 141.75L154.938 140L153.875 136.938H153.562ZM151.5 137.375L151 137.562L150.938 137.938L151 138.188V138.5L150.938 138.75L151 138.938L151.438 139.375L151.625 139.75L151.562 140.125L151.812 140.625L152.188 141L152.5 141.062L152.688 140.75L152.562 140.25L152.625 139.938L152.75 139.688V139.312L152.5 139.062L152.188 138.125L151.875 137.75L151.812 137.438L151.5 137.375ZM166.188 138.25L166 138.375V138.562L166.062 138.75L166.375 138.875L166.562 139.125V139.438L166.625 139.688L167 140.25L167.5 140.438H168.062L168.438 140.25L168.75 140.062L168.875 139.75L168.75 139.562L168.688 139.438L168.812 139.312L169.188 139.25L169.375 139.188L169.312 138.938L168.938 138.812L168.625 139L168.375 138.938L167.688 138.812L167.062 138.5L166.562 138.312L166.188 138.25ZM179.375 138.375L178.625 138.688L179.312 139.812L179.5 140.438V140.938L179.438 141.75L179.625 141.875L179.875 141.75L180.438 141.375L180.812 141.062L180.938 140.625V140L180.875 139.5L180.625 139L180 138.562L179.75 138.812L179.375 138.375ZM184.75 139.062L184.562 139.125L184.312 139.438L184.188 139.75L184.062 140.375L184 141L183.812 141.25L184.625 141.312L184.812 141.125L184.562 140.75L184.5 140.5L184.75 139.938V139.625L185.062 139.438L185 139.188L184.75 139.062ZM170.812 139.5L169.812 139.562L169.75 139.938L169.5 140.062L168.938 140.375L168.875 141.5L168.938 141.812V142L169.25 142.188L169.812 142.25L170.312 142L170.625 141.688L170.75 141.375L170.812 140.625L171.438 140.75L171.75 140.875L172.188 140.812L172.438 140.938L172.25 141.25L171.875 141.5L171.75 141.688L171.938 142.375L171.75 142.562L171.562 142.75L171.875 142.938L172.688 143L173.125 143.688L173.562 143.875L173.812 144.562L174.438 144.938L174.938 145L175.25 145.688L176.25 145.938L176.5 145.75L176.812 145.438L177.188 145.25V144.75L177.812 144.562L178.062 144.25L178.438 144.125L178.875 144L178.812 143.75L179.938 142.375L179.812 142.125L178.188 142.625L176.5 142.875V143.125L176.812 143.375L176.688 143.625H176.5L175.75 143.312L175.5 143L175 142.625L174.375 142.438L173.688 142.625L173.438 142.375L173.562 141.938L174 141.25L174.062 141.062L173.875 140.875L174.188 140.688V140.375L173.438 139.688L172.938 139.5L172.062 139.625L171.75 139.5L171.25 139.562L170.812 139.5ZM159.812 140.188L159.312 140.25L159.188 140.5L159 140.938L159.062 141.25L159.688 142L160 142.5L160.375 142.562L160.75 142.25L160.812 141.75L160.875 141.562L161.062 141.438L161 141.125H160.75L160.5 140.938L160.188 140.375L159.812 140.188ZM182.125 141.875L181.812 142L181.188 142.5L180.875 142.75L180.688 143.312V143.75H180.938L181.312 143.625L181.688 143.812L182 143.5L182.125 142.875L182.625 142.312L182.125 141.875ZM180.312 145.75L180.062 146.062L179.875 146.375L179.375 147.312L179.312 147.625L179.688 147.312L180.062 147.062L180.562 146.875L180.938 146.75L181.25 146.562L181.375 146.125H181.062L180.438 146.438L180.562 145.875L180.312 145.75Z" fill="black" stroke="black" stroke-width="5" stroke-linecap="square"/>
<path fill-rule="evenodd" clip-rule="evenodd" d="M140.125 134.188L139.062 134.5L138.688 136.125L136 134.938L134.75 135.5L132.812 135.688L130.5 136.438L128.375 136L126.062 136.5L121.625 136.812L121.5 138.125L122.625 139L122.375 140.125L119.438 140.812L117.438 140.5L116.125 140L114.438 141.5L112.75 143.5L116.125 143.75L117.812 145L122.312 143.5L123.312 143.625L122.438 145.125L120.5 145.938L117.938 146.188L116.312 146.875L113.688 147.812L113.5 149.5L112.375 150.625L110.75 150.438L110.812 151.812L108.562 152.125L107.312 154.188L106.812 156.25L107.438 157.25L110.062 158.312L111.312 155.625L112.5 156.25L112.938 157.438L115.25 159L117.562 160.062L118.625 162.125L120.312 164L121.75 164.375L122.375 165.312L125.188 170.812L126.387 171.349L127.094 172.906L130.322 173.712L132.832 174.132L134.438 174.312L136.125 174.5L138.125 174.688L140.75 173.75L140.688 172.75L138.688 172.188L139.75 171.625L141.125 171.812L142.625 172.812L143.625 171.125L142.438 170L140.688 168.438L142.312 167.812L143.5 169.062L144.75 169L147.188 169.562L148.188 168.375L149.75 168.688L150.062 166.625L150.75 166.75L151.188 166.875L152.438 166.688L151.75 165.938L152.125 163L153.75 164.312L154.5 163.75L153.938 162.5L155.125 161.25L155.5 159.438L156 159.562L156.438 159.75L156.688 159.5L156.875 158.625L156.812 157.188L156.625 154.938L156.562 154.375L156.188 154.125L155.875 154.375L155.75 155.188L155.688 155.812L155.312 156.688L155.062 156.875L154.875 156.25L154.812 154.375L155.25 153.625L155.188 153.375L154.875 153.125V152.75L155.062 152.562L155.688 152.062L155.562 151.875L155.75 151.562L155.938 151.625L156.188 151.562L156.312 151.375V150.875L156.188 150.188L155.75 149.438L155.688 149.062L155.938 148.812L156.125 149L156.25 149.375L156.375 149.875L156.562 150.125L156.812 151.438L156.562 152.25V152.875L156.625 153.625L157 153.688L157.688 153.438L157.75 152.875L157.562 152L157.688 151.688L158.562 151.125L158.5 151.562L158.688 152.188L158.375 152.375L158.188 152.938L158.312 153.438L158.062 153.812L157.75 154.375V154.875L158.062 155.562L158.312 156.938L158.125 157.438L158.062 157.812L158.375 158.188L158.312 159.938L158.188 160.25L158.375 160.688L158.938 161.25L159.5 162.375L160.062 163.562L160 164.312L159.688 164.812L159.25 165.375V165.875L160.75 165.375L161.312 163.125L161.688 162.75L162.062 161.562L162.562 160.938L163.125 160.562L163.375 159.5L163.125 158L163.5 156.875L163.562 156.438L163.688 155.938L163.875 156.188L164 156.625L164.188 156.562L164.312 156.375L164.25 156L164 154.812L164.062 154.562L164.375 154.625L164.438 155L164.688 155.125L164.875 154.875V154.5L165.062 154.062L165.438 153.875L166 153.812L166.312 153.688L166.438 153.25L166.625 152.938L167.25 152.75L167.375 152.5L168.5 152.062L168.875 151.75L169 151.5L168.812 151.312L169 150.938L169.312 150.75L169.812 150.688L170.062 150.875L170.125 151.062L169.875 151.312H169.625L169.375 151.5L169.25 151.812L169.438 152L169.375 152.188L169.125 152.312L168.75 152.688V152.938L168.812 153.188L169.125 153.062L169.438 152.688L170 152.375L171.188 151.938L171.562 151.562L171.5 151.25L170.375 151.375L170.75 150.688L171.438 150.375L171.75 150.188L172.125 150.25H172.312L172.875 149.625L173.125 149.688L173.188 149.875H173.438L173.75 149.688L174.062 149.5L174.562 148.312L174.375 148.188L174 148.312L173.625 148.438L172.875 148.125L172.562 147.812L172.75 147.25L173.25 146.938L173.438 146.688L173 145.875L172.625 145.812L172.25 145.688L171.812 145.188L170.562 144.312L170 144.25L169.812 144.062L169.75 143.938L169.875 143.75H170.25L171.125 143.938L171.562 144.062L171.812 143.938L171.75 143.625L171.375 143.5L170.812 143.375L170.688 143.062L170.5 142.625L170.125 142.5L169.625 142.562H168.75L168.562 142.312L168.5 141.562V141H168.312L167.875 141.25L167 141.688L166.5 141.812L166.062 141.75L165.5 141.688L165.062 141.5L164.562 141.625L164 141.812H163.5L163.312 142L162.75 142.125L162.25 142.375L161.812 142.562L161.438 142.875L160.875 143.188L160.75 143.688L160.938 143.938V145.25L160.75 145.625L160.562 145.25L160.375 144.75L159.938 144.5H159.062L158.5 144.625L158 144.438L157.5 144.875L157 144.375L156.75 143.875L156.188 143.562L155.5 143.375V143.688L155 143.75L154.75 143.562L154.312 143.75L154.188 144.188L154.312 144.438L154.5 144.625L154.562 144.938L154.75 145.938L155.062 146.812L155 147.125L154.625 147.062L154.438 146.688L154 145.688L153.688 144.75L153.438 144.375H152.875L151 143.375L150.312 142.562H150L149.438 142.125L149.188 142.062L149 141.75L148.625 141.875L148.688 142.25L148.938 142.5L148.875 143.688L149 144L149.812 145.312L149.938 145.688L149.125 145.312L148.562 145.062H147.875L147.188 145.312L146.75 144.562L146.062 142.875L147.312 141.938L147.062 140.5L146.375 140.312L147.562 138.75L146.5 136.438L143.312 135.688L142.688 136.688L143.5 139.5L141.75 139.625L140.812 136.625L141.5 135L140.125 134.188ZM175.062 150.5L175 150.562L173.812 152L172.812 152.438L172.75 152.625L172.938 152.688V152.875L172.312 153.75L172.375 153.938L172.688 153.875L172.75 154.062L172.625 154.188L172.438 154.438L172.25 154.688L172.312 155.25L172.812 155.5L173.375 155.312L173.5 155.688H173.812L174.062 155.312L174.188 153.625L174.812 153V152.375L175.375 151.875L175.562 151.438L175.062 150.5ZM167.938 154.75L167.25 155.125H166.5L166.25 155.25L166.062 155.562V155.625L166.125 156L166.062 156.312L165.562 156.812L165.5 157L165.562 157.562L165.438 157.875L165.562 157.938L165.938 157.812L166.125 157.625L166.312 157.125L166.562 157L166.75 157.188L166.812 157.562L167.062 157.75L167.5 157.625L167.75 157.375L167.438 156.812L167.375 156.438L167.625 156.25L167.875 156.375L168.062 156.188L168 155.812L168.188 155.438L168.562 155.375L168.875 155.188L169 154.938H168.688L167.938 154.75ZM172.438 156.875L172.125 157.062L171.875 157.438L171.125 157.938L170.688 157.812L169.25 158.688L169 158.875L168.312 159.438L167.75 159.938L167.812 160.312L168 160.25L168.375 160.062L168.75 159.688L168.875 159.875V160.25L169.562 160.312L169.812 160.125L170.062 159.875L170.375 159.688L170.812 159.812L171.562 159.375L171.312 159.062L170.938 158.812L171.125 158.5L172.375 157.75L172.562 157.562V157.062L172.438 156.875Z" fill="black" stroke="black" stroke-width="5" stroke-linecap="square"/>
<path fill-rule="evenodd" clip-rule="evenodd" d="M132.75 101.562L129.25 101.812L128.062 102.312L128 103.75L125.875 105.188L124.875 107L120.562 107.438L119.688 107L120.062 105.125L118.562 104.188L117.312 104L116.562 102.125L115.312 101.75L113.625 103.188L111 102.562L110.438 104.062L109.5 104.688L109.562 106.25L108.312 108.688L109.375 110.188L108.625 113.562L107.062 112.938L105.188 112.812L104.062 115.312L102.188 117.438L100.438 114.25L97.9375 111.375L95.8125 109.75L94.5 107.688L93.375 107.875L89.375 105.125L88.125 105.25L86.375 106.375L87 110.688L79.875 109.5L80.375 111.688L77.5625 112.688L78.3125 114.375L79.5625 114.938L79.1875 118.5L79.625 121.062L78.3125 121.875L79.5625 124.25L79.125 125.875L79.9375 129.625L80 132.375L84.0625 133.5L85.6875 134.75L85.0625 137.5L86.375 140.062L87.5625 139.125L91.0625 139.375L92.4375 137.688L92.5312 134.938L94.1094 134.641L94.7188 136.812L96.4531 135.672L99.2031 137.109L102.375 137.25L105.5 137.438L106.406 138.531L108.104 138.345L109.734 142.531L110.5 142.641L111.375 144.188L112.75 143.5L114.438 141.5L116.125 140L117.438 140.5L119.438 140.812L122.375 140.125L122.625 139L121.5 138.125L121.625 136.812L118.25 137.125L117.562 135.125L120.312 135.188L121.875 134.25L123.875 135.188L126.688 134.5L127.625 133.25L129.125 131.688L128.312 130.312L129.938 129.5L131.625 130.688L133 132.562L134.875 131.75L135.5 130.688L137.5 130.875L136.562 125.938L134.75 123.25L133.562 121L134.812 119.25L135.562 117.312L134.25 115.5L134.75 114.438L134.5 112.25L132.188 110.375L132.875 108.938L132.188 105.75L133.125 105.375L132.75 101.562Z" fill="black" stroke="black" stroke-width="5" stroke-linecap="square"/>
<path fill-rule="evenodd" clip-rule="evenodd" d="M35.875 4L31.375 28.6875L37.0625 36.3125L40.3125 36.1875L46.0625 46.375L45.0625 51.625L43.875 54.375L41.9375 55.8125L41.25 60.25L41.75 62.5625L51.9375 74.25L52.5 77.4375L53.75 77.5L54.625 80.375L57.4375 85.5625L58.6875 89.3125L60.3125 90.5625L63.125 90.875L66.5 97.875L69.1875 101.688L79.875 109.5L87 110.688L86.375 106.375L88.125 105.25L89.375 105.125L93.375 107.875L94.5 107.688L95.8125 109.75L97.9375 111.375L100.438 114.25L102.188 117.438L104.062 115.312L105.188 112.812L107.062 112.938L108.625 113.562L109.375 110.188L108.312 108.688L109.562 106.25L109.5 104.688L110.438 104.062L111 102.562L113.625 103.188L115.312 101.75L116.562 102.125L117.312 104L118.562 104.188L120.062 105.125L119.688 107L120.562 107.438L124.875 107L125.875 105.188L128 103.75L128.062 102.312L129.25 101.812L132.75 101.562L130.812 99.875L130.562 97.3125L129.625 96.8125L129.375 95.0625L128.062 94L125.312 93.25L122.938 88.5625L122.375 87.1875L121.375 86.875L119.375 82.9375L121.562 82.25L123.375 79.4375L122.938 77.875L124.562 76.625L125.125 74.375L121.438 70.25L119.188 64.5625L114.5 64.0625L110.562 61.8125L108.812 58.5L108.25 54.25L98.875 40.75L94.5724 30.9094L91.1288 25.5515L89.2656 23.1646L87.2031 22.0312L83.4844 27.5781L82.8125 35.0625L80.875 37.0625L79.625 35.8125L76.1875 34.8125L71.375 34.5625L69.375 33.75L63.25 32.625L62.1875 33.375L60.9375 31.625L61.1875 29.5625L59.1875 25.3125L54.875 20.0625L53.9375 15.75L51.4375 12.9375L49.4375 10.0625L46.4375 6L42.5625 6.1875L35.875 4ZM84.5 64.5L86.375 67.25H87.6875L91.3125 70.9375L93 69.875L94.25 68.75L96.125 70.0625L94.6875 71.6875L92.9375 72.375L92.5625 75.9375L91.25 72.625L87.3125 74.5625L85.9375 72.3125L83.625 69.25L85.375 69.3125L86.4375 68.75L85.3125 67.5625L83.625 67.375L83.375 65.625L84.5 64.5Z" fill="black" stroke="black" stroke-width="5" stroke-linecap="square"/>
<path fill-rule="evenodd" clip-rule="evenodd" d="M96.4375 135.625L94.75 136.812L94.125 134.562L92.5 134.938L92.4375 137.688L91.0625 139.375L87.5625 139.125L86.375 140.062L87.5625 142.125L81.9375 143.25L74.8125 157L79.2188 155.625L80.5 164.844L84.25 166.625L84.5625 168.938L85.4375 171L87.75 169.562L89.1875 166.312L90.75 165.312V167.75L91.5625 167.5L91.6875 169.125L90.6875 171.188L92.875 169.938L93.375 168.188L94.3125 166.375L95.4375 164.938L96.75 164.875L98.1875 163.125L100.375 164.438L101.562 163.875L102.312 165.188L102.812 163.062L104.812 163.125L105.875 161.5L105 159.938L107.438 157.25L106.812 156.25L107.312 154.188L108.562 152.125L110.812 151.812L110.75 150.438L108 150.125L106.75 148.312L107.688 146.875L105.812 144.438L102.625 145.562L99.25 144.188L99.1875 143L102.5 143.125L105.562 142.125L109.781 142.531L108.132 138.32L106.426 138.533L105.5 137.438L99.1875 137.125L96.4375 135.625Z" fill="black" stroke="black" stroke-width="5" stroke-linecap="square"/>
<path fill-rule="evenodd" clip-rule="evenodd" d="M36.9375 60.25L31.1875 61.5L33.3125 67.5L33.0625 69.5625L34.125 74.375L36.625 78.875L36.4375 81.125L38.375 84.9375L38.3125 90L35.5625 93.9375L36.1875 100.5L35.25 102.938L33.6875 107.188L32.0625 108.375L31.25 110.438L28.25 111.75L26.6875 113.438L24.25 113.75L22.3125 112.938L19.625 115.375L21.0625 118.312L21.125 121.125L19.6875 122.688L18.9375 124.312L16.25 124.812L15 127.125L15.875 131.75L16.375 136.625L17.125 138.625L16.9375 143.625L23.0625 145.75H27.4375L29.3125 146.562L32 148.688L34.625 149.312L36.25 146.562L37.9375 147.438L39.1875 148.625V152.5L42.25 151.438L42.375 153.312L44.5 152.938L45.125 154.812L46.375 154.875L46.9375 159.438L49.4375 160.938L50.5625 159.938L49.9375 152.812L48.75 148.062L47.375 144.5L48.6875 143.188V139.75L49.4375 140.875L50.3125 141.875L51.8125 141.688L51.1875 140.312L51.9375 139.312L54.1875 139L55.5 140.625L57 143.938L58.8125 142.188L59.5 140L61.625 139.062L62.8125 141.062L64.4375 139.625L66.125 141.062L67.5625 142L69.5625 141.938L70.3125 146.188L68.6875 149.375L67.25 152.125L67.1875 154.688L68 155L69.0625 153.188L70.8125 151.875L72.0625 152.938L71.25 155L74.8125 157L81.9375 143.25L87.5625 142.125L86.375 140.062L85.0625 137.5L85.6875 134.75L84.0625 133.5L80 132.375L79.9375 129.625L79.125 125.875L79.5625 124.25L78.3125 121.875L79.625 121.062L79.1875 118.5L79.5625 114.938L78.3125 114.375L77.5625 112.688L80.375 111.688L79.875 109.5L69.1875 101.688L66.5 97.875L63.125 90.875L60.3125 90.5625L58.6875 89.3125L57.4375 85.5625L54.625 80.375L53.75 77.5L52.5 77.4375L51.9375 74.25L41.75 62.5625L41.25 60.25L39.875 60.6875L36.9375 60.25Z" fill="black" stroke="black" stroke-width="5" stroke-linecap="square"/>
<path fill-rule="evenodd" clip-rule="evenodd" d="M146.667 80.878L145.685 88.741L144.685 91.6785L143.498 96.3035L141.248 98.241L136.748 97.491L135.81 98.616L136.248 99.616L133.338 102.309M132.56 101.553L130.623 99.866L130.373 97.3035L129.435 96.8035L129.185 95.0535L127.873 93.991L125.123 93.241L122.748 88.5535L122.185 87.1785L121.185 86.866L119.185 82.9285L121.373 82.241L123.185 79.4285L122.748 77.866L124.373 76.616L124.935 74.366L121.248 70.241L118.998 64.5535L114.31 64.0535L110.373 61.8035L108.623 58.491L108.06 54.241L98.6854 40.741L94.3829 30.9004L90.9392 25.5424L89.076 23.1556L87.0135 22.0222L83.2948 27.5691L82.6229 35.0535L80.6854 37.0535L79.4354 35.8035L75.9979 34.8035L71.1854 34.5535L69.1854 33.741L63.0604 32.616L61.9979 33.366L60.7479 31.616L60.9979 29.5535L58.9979 25.3035L54.6854 20.0535L53.7479 15.741L51.2479 12.9285L49.2479 10.0535L46.2479 5.99097L42.3729 6.17847L36.4809 4.5213" fill="black"/>
<path d="M146.667 80.878L145.685 88.741L144.685 91.6785L143.498 96.3035L141.248 98.241L136.748 97.491L135.81 98.616L136.248 99.616L133.338 102.309M132.56 101.553L130.623 99.866L130.373 97.3035L129.435 96.8035L129.185 95.0535L127.873 93.991L125.123 93.241L122.748 88.5535L122.185 87.1785L121.185 86.866L119.185 82.9285L121.373 82.241L123.185 79.4285L122.748 77.866L124.373 76.616L124.935 74.366L121.248 70.241L118.998 64.5535L114.31 64.0535L110.373 61.8035L108.623 58.491L108.06 54.241L98.6854 40.741L94.3829 30.9004L90.9392 25.5424L89.076 23.1556L87.0135 22.0222L83.2948 27.5691L82.6229 35.0535L80.6854 37.0535L79.4354 35.8035L75.9979 34.8035L71.1854 34.5535L69.1854 33.741L63.0604 32.616L61.9979 33.366L60.7479 31.616L60.9979 29.5535L58.9979 25.3035L54.6854 20.0535L53.7479 15.741L51.2479 12.9285L49.2479 10.0535L46.2479 5.99097L42.3729 6.17847L36.4809 4.5213" stroke="black" stroke-width="1.5" stroke-linecap="square"/>
<path fill-rule="evenodd" clip-rule="evenodd" d="M71.7769 155.128L74.9331 156.971L79.0641 155.468L83.2184 165.191L84.4559 166.517V168.727L85.2955 170.317M17.4559 143.685L23.1831 145.721H27.5581L29.4331 146.534L32.1206 148.659L34.7456 149.284L36.3706 146.534L38.0581 147.409L39.3081 148.596L39.2318 151.6L39.3394 151.815M126.598 172.257L126.576 171.318L125.308 170.784L122.496 165.284L121.871 164.346L120.433 163.971L118.746 162.096L117.683 160.034L115.371 158.971L113.058 157.409L112.621 156.221L111.433 155.596L110.183 158.284L107.558 157.221L105.121 159.909L105.996 161.471L104.933 163.096L102.933 163.034L102.433 165.159L101.683 163.846L100.496 164.409L98.3081 163.096L96.8706 164.846L95.5581 164.909L94.4331 166.346L93.4956 168.159L92.9956 169.909L91.6309 171.206L91.5153 171.159" fill="black"/>
<path d="M71.7769 155.128L74.9331 156.971L79.0641 155.468L83.2184 165.191L84.4559 166.517V168.727L85.2955 170.317M17.4559 143.685L23.1831 145.721H27.5581L29.4331 146.534L32.1206 148.659L34.7456 149.284L36.3706 146.534L38.0581 147.409L39.3081 148.596L39.2318 151.6L39.3394 151.815M126.598 172.257L126.576 171.318L125.308 170.784L122.496 165.284L121.871 164.346L120.433 163.971L118.746 162.096L117.683 160.034L115.371 158.971L113.058 157.409L112.621 156.221L111.433 155.596L110.183 158.284L107.558 157.221L105.121 159.909L105.996 161.471L104.933 163.096L102.933 163.034L102.433 165.159L101.683 163.846L100.496 164.409L98.3081 163.096L96.8706 164.846L95.5581 164.909L94.4331 166.346L93.4956 168.159L92.9956 169.909L91.6309 171.206L91.5153 171.159" stroke="black" stroke-width="1.5" stroke-linecap="square"/>
<path d="M36.552 201.528C35.336 197.432 33.48 194.52 30.984 192.792C28.552 191 25.48 189.912 21.768 189.528C18.184 189.144 15.016 190.072 12.264 192.312C9.64 194.424 8.072 197.272 7.56 200.856C7.112 204.312 7.688 207.384 9.288 210.072C10.888 212.76 14.376 215.032 19.752 216.888C25.256 218.68 29.832 221.208 33.48 224.472C37.256 227.736 38.888 232.248 38.376 238.008C37.864 243.832 35.688 247.896 31.848 250.2C28.072 252.568 23.688 253.56 18.696 253.176C13.768 252.92 9.64 251.128 6.312 247.8C2.984 244.472 1.096 240.184 0.648005 234.936C0.520005 232.632 1.192 231.544 2.664 231.672C4.008 231.736 4.776 232.632 4.968 234.36C5.416 238.392 6.82401 241.72 9.19201 244.344C11.432 246.904 14.504 248.376 18.408 248.76C22.312 249.144 25.864 248.44 29.064 246.648C32.2 244.92 33.832 241.816 33.96 237.336C34.024 233.048 32.648 229.624 29.832 227.064C27.016 224.568 23.176 222.584 18.312 221.112C13.512 219.768 9.64 217.336 6.696 213.816C5.224 212.088 4.2 210.168 3.624 208.056C3.048 205.88 2.888 203.512 3.144 200.952C3.72 196.024 5.8 192.056 9.384 189.048C11.176 187.576 13.064 186.552 15.048 185.976C17.096 185.336 19.208 185.08 21.384 185.208C25.736 185.592 29.576 186.808 32.904 188.856C36.232 190.776 38.696 194.232 40.296 199.224C40.808 201.144 40.648 202.328 39.816 202.776C39.112 203.224 38.024 202.808 36.552 201.528ZM87.912 190.104C82.856 208.92 78.824 223.576 75.816 234.072C72.872 244.504 71.016 250.776 70.248 252.888C68.84 254.808 67.656 254.584 66.696 252.216L63.336 240.888L49.704 190.296C49.384 187.928 49.992 186.616 51.528 186.36C53 186.104 53.8 186.968 53.928 188.952L68.712 243.384L83.688 188.472C84.136 186.68 85.032 185.976 86.376 186.36C87.592 186.872 88.104 188.12 87.912 190.104ZM136.68 185.688C138.344 185.752 139.144 186.456 139.08 187.8C138.952 189.208 138.152 190.04 136.68 190.296L100.488 190.2L100.968 216.888L132.168 216.792C133.768 216.984 134.568 217.72 134.568 219C134.568 220.28 133.768 221.016 132.168 221.208L100.872 221.4L100.584 248.088L133.416 248.28C134.888 248.664 135.624 249.4 135.624 250.488C135.624 251.704 134.824 252.504 133.224 252.888C122.28 252.824 113.928 252.792 108.168 252.792C102.408 252.792 99.24 252.76 98.664 252.696C97.32 252.696 96.616 251.896 96.552 250.296C96.616 249.272 96.68 247.256 96.744 244.248C96.808 241.24 96.872 237.304 96.936 232.44C97 222.584 96.904 208.568 96.648 190.392C96.328 187.832 96.84 186.296 98.184 185.784L136.68 185.688ZM166.632 188.472C167.848 191.992 169 195.576 170.088 199.224C171.24 202.808 172.328 206.392 173.352 209.976C174.376 213.624 175.784 218.808 177.576 225.528C179.432 232.248 181.672 240.472 184.296 250.2C184.552 252.056 184.072 253.144 182.856 253.464C181.576 253.784 180.648 253.272 180.072 251.928L174.216 231.192L154.824 231.384L149.448 250.872C149.064 252.792 148.168 253.496 146.76 252.984C145.288 252.6 144.776 251.352 145.224 249.24L162.984 187.608C163.24 186.008 163.816 185.272 164.712 185.4C165.48 185.464 166.12 186.488 166.632 188.472ZM172.872 227.064C171.784 221.176 170.536 215.576 169.128 210.264C167.784 204.888 166.344 199.768 164.808 194.904L156.744 226.968L172.872 227.064Z" fill="black"/>
</g>
<defs>
<clipPath id="clip0_5_2">
<rect width="188" height="256" fill="white"/>
</clipPath>
</defs>
</svg>
